<?xml version="1.0" standalone="no"?>
<!DOCTYPE svg PUBLIC "-//W3C//DTD SVG 20010904//EN"
 "http://www.w3.org/TR/2001/REC-SVG-20010904/DTD/svg10.dtd">
<svg version="1.0" xmlns="http://www.w3.org/2000/svg"
 width="208.000000pt" height="208.000000pt" viewBox="0 0 208.000000 208.000000"
 preserveAspectRatio="xMidYMid meet">
<metadata>
Created by potrace 1.11, written by Peter Selinger 2001-2013
</metadata>
<g transform="translate(0.000000,208.000000) scale(0.100000,-0.100000)"
fill="#000000" stroke="none">
<path d="M868 1995 c-2 -1 -32 -5 -68 -9 -90 -9 -130 -15 -165 -24 l-30 -8 0
-942 0 -942 182 0 183 0 0 43 c1 23 2 152 3 285 l2 244 125 1 125 2 196 -285
196 -285 227 -3 227 -2 -51 72 c-28 40 -143 201 -255 357 l-205 283 28 22 c88
68 139 131 192 234 53 105 71 183 71 307 1 181 -54 319 -173 436 -147 145
-371 218 -665 217 -78 0 -143 -2 -145 -3z m317 -340 c98 -12 187 -67 236 -144
104 -164 49 -384 -122 -484 -76 -44 -212 -68 -296 -51 l-30 6 -1 334 -1 334
22 5 c56 12 97 12 192 0z"/>
<path d="M322 1967 c-12 -13 -30 -48 -40 -78 -14 -43 -22 -55 -41 -57 -13 -2
-28 2 -32 10 -12 18 -11 75 1 99 9 16 7 21 -12 28 -26 10 -32 0 -41 -64 -6
-41 14 -103 36 -117 20 -13 66 -9 91 7 14 10 30 37 40 69 10 30 25 61 35 70
16 15 19 15 35 -3 23 -25 27 -68 11 -108 -13 -31 -7 -43 25 -43 19 0 35 84 26
134 -14 72 -89 102 -134 53z"/>
<path d="M164 1651 c1 -26 1 -26 98 -26 87 -1 100 -4 122 -24 31 -29 37 -62
18 -101 -18 -37 -39 -43 -154 -43 -86 0 -88 -1 -88 -23 0 -14 6 -25 15 -25 65
-6 185 -3 206 4 75 24 106 139 52 193 -16 15 -16 17 1 30 10 7 16 20 13 28 -5
11 -32 14 -145 13 l-139 0 1 -26z"/>
<path d="M17 1293 c-4 -3 -7 -19 -7 -34 0 -22 6 -30 26 -35 35 -9 59 15 50 50
-5 20 -13 26 -35 26 -15 0 -31 -3 -34 -7z"/>
<path d="M164 1268 c-3 -11 -3 -23 1 -26 4 -4 69 -7 146 -7 l139 0 0 26 0 27
-140 0 c-129 -1 -140 -2 -146 -20z"/>
<path d="M159 1138 c-4 -34 2 -62 16 -78 15 -17 15 -19 -1 -28 -9 -5 -15 -15
-12 -23 4 -11 35 -14 146 -14 l142 0 0 27 0 28 -106 -1 c-121 -2 -138 6 -136
65 1 32 -1 36 -23 36 -14 0 -26 -6 -26 -12z"/>
<path d="M245 888 c-35 -9 -71 -43 -83 -77 -15 -42 4 -151 25 -151 28 1 34 17
21 64 -11 40 -10 51 3 74 14 26 63 52 75 40 3 -4 0 -16 -6 -29 -18 -33 -15
-112 5 -142 34 -52 106 -56 150 -7 28 31 30 114 3 158 -17 28 -18 33 -4 38 9
3 16 14 16 23 0 14 -13 16 -89 16 -49 1 -101 -3 -116 -7z m149 -79 c33 -39 34
-82 2 -114 -62 -62 -124 45 -73 126 17 27 42 23 71 -12z"/>
<path d="M221 537 c-70 -18 -91 -134 -32 -176 18 -13 18 -15 -6 -35 -31 -27
-37 -80 -12 -123 16 -29 16 -33 2 -41 -8 -5 -14 -15 -11 -23 3 -10 37 -13 146
-14 l142 -1 0 27 0 26 -99 1 c-108 0 -138 10 -147 47 -16 64 21 85 151 85 95
0 95 0 95 25 0 25 0 25 -99 25 -84 0 -102 3 -125 21 -31 25 -35 68 -7 93 15
14 39 17 125 17 l106 0 0 27 0 27 -99 0 c-55 0 -113 -3 -130 -8z"/>
</g>
</svg>
