<svg xmlns="http://www.w3.org/2000/svg" width="595.11" height="86.6" viewBox="0 0 595.11 86.6">
  <defs>
    <style>
      .cls-1 {
        fill: #383838;
      }
    </style>
  </defs>
  <g id="Layer_2" data-name="Layer 2">
    <g id="Layer_2-2" data-name="Layer 2">
      <g>
        <g>
          <path d="M24.49,85.43V1.91A95.84,95.84,0,0,1,42.83.06a53.86,53.86,0,0,1,11.9,1.11q12.3,2.69,18.63,10t6.33,18.16a29.35,29.35,0,0,1-3.6,13.92A27.61,27.61,0,0,1,66.56,53.8L89.3,85.43H69.49L51.68,59.53a44.38,44.38,0,0,1-6.91.53c-1.37,0-2.74-.06-4.1-.18V85.43Zm16.18-40.2a32.37,32.37,0,0,0,4.68.36A18.41,18.41,0,0,0,57,42.05a15.29,15.29,0,0,0,6-12.49,15.06,15.06,0,0,0-1.38-6.48A13.26,13.26,0,0,0,57.42,18a14.87,14.87,0,0,0-6.91-2.83,22.15,22.15,0,0,0-4.16-.36,36.58,36.58,0,0,0-5.68.48Z"/>
          <path d="M96.09,85.43l40-85.08h2.87l39.61,85.08H160.66l-6.27-13.36h-34l-6.27,13.36Zm29.88-27h22.68L137.34,32.17Z"/>
          <path d="M192.18,85.43V.94L194.6.35l35,31.82L264.07.35l2.41.59V85.43H250.54V33.69L230.18,52.91h-1.47L208.35,33.69V85.43Z"/>
          <path d="M289.21,85.43V1.62A115.87,115.87,0,0,1,306.33,0h1.92a74.1,74.1,0,0,1,12.41.94,68.14,68.14,0,0,1,11.67,3,42.83,42.83,0,0,1,9.32,4.6,41.21,41.21,0,0,1,7.05,6,36.51,36.51,0,0,1,5.12,6.86,43.74,43.74,0,0,1,3.32,7.42A44.27,44.27,0,0,1,359,36.27a47.32,47.32,0,0,1,.56,7.24,41.86,41.86,0,0,1-.59,7,46.91,46.91,0,0,1-1.88,7.26,36.1,36.1,0,0,1-3.38,7.2,43.92,43.92,0,0,1-5.14,6.73,35.86,35.86,0,0,1-7.11,5.92,57.51,57.51,0,0,1-9.29,4.73,52.86,52.86,0,0,1-11.7,3.12,110.64,110.64,0,0,1-14.28,1.16h-1.88A106.8,106.8,0,0,1,289.21,85.43Zm16.17-13.77c1.6.12,3.21.18,4.81.18.86,0,1.68,0,2.47-.06a32.08,32.08,0,0,0,7.27-1.1,52.28,52.28,0,0,0,6.9-2.38,24.14,24.14,0,0,0,6.07-3.81,28.64,28.64,0,0,0,4.87-5.36,23.48,23.48,0,0,0,3.23-7,31.37,31.37,0,0,0,1.18-8.75q-.06-14.34-10-22.26-8-6.36-20.48-6.36a57.58,57.58,0,0,0-6.28.35Z"/>
          <path d="M366.08,85.43,406,.35h2.87l39.61,85.08H430.65l-6.27-13.36H390.33l-6.26,13.36Zm29.88-27h22.68L407.33,32.17Z"/>
          <path d="M462.17,85.43V1.17h16.17V31.82H508V1.17h16.17V85.43H508v-40H478.34v40Z"/>
          <path d="M547,85.43V1.17h16.18V71.78h31.93V85.43Z"/>
        </g>
        <g>
          <path class="cls-1" d="M19.55,84.93H7V83.7l1.57-.87a3.86,3.86,0,0,1-2-3.46A4.2,4.2,0,0,1,9.12,75.2a4,4,0,0,1-1.88-1.62,4.5,4.5,0,0,1-.7-2.44,4.39,4.39,0,0,1,1.38-3.46,5.33,5.33,0,0,1,3.68-1.23h8v2.2H11.77a3.36,3.36,0,0,0-2.55.86,3,3,0,0,0-.83,2.14,2.78,2.78,0,0,0,.19,1,3.25,3.25,0,0,0,.56.93,2.8,2.8,0,0,0,1.06.75,4.29,4.29,0,0,0,1.53.34h7.82v2.2H11.77a3.47,3.47,0,0,0-2.54.83,2.95,2.95,0,0,0-.64,3.13,3.56,3.56,0,0,0,.59.95,2.63,2.63,0,0,0,1.08.72,4.27,4.27,0,0,0,1.57.28h7.72Z"/>
          <path class="cls-1" d="M15.75,62.88a3.94,3.94,0,0,1-3.07-1.42,5.44,5.44,0,0,1-1.25-3.73A6.73,6.73,0,0,1,12,55.05a5,5,0,0,1,1.2-1.89h-.88a4.87,4.87,0,0,0-1.39.23A4.71,4.71,0,0,0,9.69,54a3,3,0,0,0-.92,1.18A4.13,4.13,0,0,0,8.43,57a5.19,5.19,0,0,0,.2,1.46A6.1,6.1,0,0,0,9,59.53c.13.26.3.57.52.94L8,61.31a6.75,6.75,0,0,1-1-2,8.2,8.2,0,0,1-.41-2.55v-.1a6.49,6.49,0,0,1,.37-2.14,5.18,5.18,0,0,1,1-1.78A5.05,5.05,0,0,1,9.82,51.5a7.65,7.65,0,0,1,2.6-.53h7.13v1.29L17.76,53A5.22,5.22,0,0,1,20,57.73a5.53,5.53,0,0,1-1.22,3.73A3.85,3.85,0,0,1,15.75,62.88Zm-.1-2.2a2.39,2.39,0,0,0,1.91-.91,3.61,3.61,0,0,0,.77-2.39,4.16,4.16,0,0,0-1.08-2.83,3.82,3.82,0,0,0-2.32-1.39h-.15A5.28,5.28,0,0,0,13.52,55,5.52,5.52,0,0,0,13,57.33v.08a3.48,3.48,0,0,0,.78,2.38A2.37,2.37,0,0,0,15.65,60.68Z"/>
          <path class="cls-1" d="M19.55,46.38H7V45.17l1.47-.92a3.1,3.1,0,0,1-1.31-1.19,3.38,3.38,0,0,1-.54-1.87A4.67,4.67,0,0,1,7,39.47l2,.4.06.2a2.87,2.87,0,0,0,1.47,4.11h9.06Z"/>
          <path class="cls-1" d="M1.79,36.47a1.72,1.72,0,0,1-1.25-.53,1.74,1.74,0,0,1,0-2.51,1.71,1.71,0,0,1,1.26-.52,1.68,1.68,0,0,1,1.26.51,1.74,1.74,0,0,1,.51,1.28,1.7,1.7,0,0,1-.51,1.24A1.66,1.66,0,0,1,1.79,36.47Zm17.76-.71H7v-2.2h12.6Z"/>
          <path class="cls-1" d="M14.43,28.32H7v-2.2h7.29A3.68,3.68,0,0,0,17.1,25a3.74,3.74,0,0,0,1-2.62,3.7,3.7,0,0,0-.24-1.27,4.76,4.76,0,0,0-.69-1.24,3.34,3.34,0,0,0-1.23-1,3.83,3.83,0,0,0-1.71-.37H7v-2.2h12.6v1.29l-1.82.81a4.81,4.81,0,0,1,1.64,1.87,5.69,5.69,0,0,1,.6,2.58,5.18,5.18,0,0,1-1.54,3.89A5.45,5.45,0,0,1,14.43,28.32Z"/>
          <path class="cls-1" d="M18.73,12l-1.67-.85a6.47,6.47,0,0,0,.73-1.55,5.9,5.9,0,0,0,.38-2.1A5.67,5.67,0,0,0,18,6.08a2.84,2.84,0,0,0-.6-1.17,1.34,1.34,0,0,0-1.07-.52,1.54,1.54,0,0,0-1.29.77,7.7,7.7,0,0,0-.91,2.33c-.69,2.86-2,4.28-3.94,4.28a3.2,3.2,0,0,1-2.68-1.29,5.36,5.36,0,0,1-1-3.3,9.87,9.87,0,0,1,.14-1.66A8.19,8.19,0,0,1,7,4.28c.11-.29.26-.69.47-1.18l1.75.66a7.69,7.69,0,0,0-.88,3.42A3.47,3.47,0,0,0,8.81,9a1.55,1.55,0,0,0,1.42.79,1.38,1.38,0,0,0,1.21-.69,7.9,7.9,0,0,0,.8-2.07,7.69,7.69,0,0,1,1.47-3.4,3.27,3.27,0,0,1,2.6-1.22,3.14,3.14,0,0,1,2.09.72A4,4,0,0,1,19.61,5,7.56,7.56,0,0,1,20,7.37a9,9,0,0,1-.39,2.76A6.85,6.85,0,0,1,18.73,12Z"/>
        </g>
      </g>
    </g>
  </g>
</svg>
